<svg width="106" height="32" viewBox="0 0 106 32" version="1.1" xmlns="http://www.w3.org/2000/svg" xmlns:xlink="http://www.w3.org/1999/xlink"><title>logo_color</title><desc>Created with Sketch.</desc><g id="Page-1" stroke="none" stroke-width="1" fill="none" fill-rule="evenodd"><g id="logo_color" fill-rule="nonzero" fill="#FFF"><path d="M29.9040665,8.55798134 C28.1987108,6.83764344 26.1530815,5.97747449 23.7679135,5.97747449 C21.6434608,5.97747449 19.8032341,6.56817644 18.2438748,7.74474026 C17.936663,7.97643347 17.6390025,8.22948623 17.3532021,8.50726557 C16.8995741,8.94876635 16.5070316,9.41720331 16.1724259,9.91215557 C15.9836066,9.54851718 15.7716967,9.2114993 15.5337571,8.90499506 C15.065435,8.297458 14.4736824,7.77567478 13.7649018,7.33543662 C13.4343894,7.13046915 13.0807863,6.94128459 12.6978999,6.77240738 C11.493718,6.24241705 10.2332788,5.97747449 8.91679195,5.97747449 C6.44020559,5.97747449 4.35269813,6.80670892 2.65395469,8.46486213 C0.954266634,10.1232258 0.104947394,12.1598533 0.104947394,14.573903 C0.104947394,16.8077118 0.810999115,18.6973478 2.22310256,20.2427057 C3.63573079,21.7889055 5.359979,22.561111 7.39721163,22.561111 C8.22973761,22.561111 9.10225254,22.3918129 10.0137069,22.0536376 L10.0137069,16.2491018 C9.61990485,16.4522805 9.2087848,16.5537121 8.78150123,16.5537121 C8.13968374,16.5537121 7.60261422,16.3401166 7.16934805,15.9105056 C6.73608188,15.482052 6.51965872,14.9460642 6.51965872,14.3032786 C6.51965872,13.6937424 6.74710246,13.1555449 7.20293458,12.6868975 C7.65876669,12.2195127 8.19079823,11.9846629 8.79860937,11.9846629 C10.2274011,11.9846629 10.9422693,12.8708211 10.9422693,14.6415591 L10.9422693,20.9875542 C10.9422693,22.3865519 10.6325386,23.4603163 10.0137069,24.2112675 C9.39456026,24.9612717 8.51679743,25.3367999 7.38041837,25.3367999 C6.53645198,25.3367999 5.70350617,25.1103676 4.88221068,24.6596075 L4.88221068,30.4133224 C6.1535656,30.8299913 7.2058734,31.0392728 8.03850433,31.0392728 C10.7732871,31.0392728 12.9932514,30.1002945 14.6982923,28.221917 C15.6523595,27.1703539 16.339204,25.9406543 16.7592454,24.5340807 C17.0899678,23.4280139 17.2553814,22.2118876 17.2553814,20.8859122 L17.2553814,20.8605543 C17.2882332,20.8942245 17.3194057,20.9287365 17.3532021,20.9621963 C17.640052,21.2471305 17.9377126,21.5058652 18.2438748,21.7437663 C19.7880153,22.9417949 21.5776522,23.543124 23.6161444,23.543124 C26.0575698,23.543124 28.1425583,22.6860064 29.8700602,20.9705086 C31.1127616,19.7368107 31.9065581,18.3144542 32.2551233,16.7067011 C32.3908338,16.0801193 32.4610506,15.4263909 32.4610506,14.7432011 C32.4610506,14.0650618 32.3908338,13.4149108 32.2551233,12.79117 C31.9096019,11.204566 31.1277706,9.7927315 29.9040665,8.55798134 M25.3290571,16.5537121 C24.850869,17.050453 24.2743353,17.2983501 23.5987213,17.2983501 C22.9349676,17.2983501 22.363367,17.050453 21.8855987,16.5537121 C21.4070957,16.0573919 21.1684214,15.4600612 21.1684214,14.7598258 C21.1684214,14.0495945 21.4046816,13.4484758 21.877307,12.9574167 C22.3499324,12.4667784 22.924052,12.2215119 23.5987213,12.2215119 C24.2853559,12.2215119 24.8653532,12.4667784 25.3375587,12.9574167 C25.810289,13.4484758 26.0465492,14.0495945 26.0465492,14.7598258 C26.0465492,15.4600612 25.8071403,16.0573919 25.3290571,16.5537121" id="Fill-1"/><path d="M98.7262036,6.33245332 L98.7262036,15.2509586 C98.7262036,16.3569201 98.3267339,16.9091118 97.5280043,16.9091118 C96.6948486,16.9091118 96.2791104,16.4077411 96.2791104,15.4031059 L96.2791104,6.33245332 L89.9654735,6.33245332 L89.9654735,8.57709971 C89.6582618,8.20956819 89.3274345,7.88265138 88.9767702,7.59256138 C87.6770767,6.51774476 86.0833961,5.97744292 84.1959383,5.97744292 C82.7091049,5.97744292 81.3860057,6.35486507 80.2253814,7.10644755 C79.7424701,7.41873886 79.2877926,7.79426705 78.8607189,8.23671481 C78.4008984,8.71430586 78.0141286,9.22693499 77.6996747,9.77460219 C77.4021191,9.35193569 77.0633151,8.9461043 76.6789593,8.55794977 C76.3626162,8.23913486 76.0347277,7.94978139 75.694979,7.68999458 C74.2034225,6.54867928 72.4863114,5.97744292 70.5430161,5.97744292 C68.8903492,5.97744292 67.4100231,6.33603079 66.0990991,7.04805076 C65.3927325,7.43199651 64.7352762,7.91674248 64.1283048,8.507234 C63.8289649,8.7989023 63.557019,9.10267083 63.3091084,9.41790828 C63.078516,9.12287296 62.8281914,8.83551866 62.5530968,8.55794977 C61.9280725,7.92705399 61.2569718,7.41358311 60.5403193,7.01374922 C59.3025509,6.32393055 57.9282323,5.97744292 56.4173635,5.97744292 C54.7075995,5.97744292 53.1816167,6.36023126 51.8384706,7.12254612 C51.1834284,7.49407598 50.5704744,7.95451626 50.0029671,8.507234 C49.6774927,8.8238393 49.3823511,9.15454401 49.1184869,9.49861159 C48.8738301,9.17758707 48.6053478,8.86624274 48.3092616,8.56605167 C47.7192933,7.96924699 47.086922,7.47839828 46.4144568,7.0888759 C45.1562217,6.36075736 43.754509,5.99438325 42.206905,5.99438325 C41.8244384,5.99438325 41.2616542,6.02794826 40.5190771,6.09570958 L40.5190771,13.0675499 C41.1148181,12.6617185 41.6443307,12.4585398 42.1060404,12.4585398 C42.7585636,12.4585398 43.3095925,12.6929687 43.7602817,13.1607743 C44.2101312,13.6294217 44.434951,14.2077078 44.434951,14.8956325 C44.434951,15.5616716 44.1961718,16.1286992 43.7179837,16.5961891 C43.2394807,17.0643104 42.6571743,17.2984237 41.9710646,17.2984237 C40.3613254,17.2984237 39.5568232,16.1759427 39.5568232,13.9310859 L39.5568232,0.10514579 L33.2436062,0.10514579 L33.2436062,14.167514 C33.2436062,14.9907509 33.3128784,15.7649555 33.4497435,16.4904436 C33.7426809,18.0429565 34.3492326,19.3727198 35.2691885,20.4800492 C36.0459818,21.4167127 37.0333207,22.1609298 38.2317299,22.7132267 C39.430139,23.2660497 40.6591959,23.5430925 41.9200551,23.5430925 C43.5938185,23.5430925 45.0911478,23.1644077 46.4144568,22.4114573 C47.0752717,22.0357187 47.6938935,21.5682287 48.2671735,21.0043577 C48.5932777,20.6836489 48.8884192,20.3486302 49.153228,19.9998277 C49.4090104,20.331795 49.6912421,20.6526091 50.0029671,20.9621647 C50.5758272,21.5310863 51.1878367,22.0035216 51.8384706,22.3844159 C53.1551674,23.155464 54.6306654,23.5430925 56.2656994,23.5430925 C57.8389132,23.5430925 59.2629818,23.1848202 60.5403193,22.4725898 C61.2453215,22.0793848 61.9055066,21.5802237 62.5197202,20.9704771 C62.8145469,20.6777566 63.0826093,20.3736724 63.3268463,20.059908 C63.5698238,20.370621 63.836102,20.6714434 64.1283048,20.9621647 C64.7410489,21.5699122 65.3981903,22.068442 66.0990991,22.4615418 C67.3819993,23.1812428 68.8120506,23.5430925 70.391142,23.5430925 C72.4010856,23.5430925 74.1686814,22.9607028 75.694979,21.798028 C76.0230774,21.5488683 76.3401552,21.2736143 76.6454777,20.9704771 C76.6583875,20.9572194 76.6706676,20.9435409 76.6836824,20.9304937 L76.6836824,23.2043911 L82.9968994,23.2043911 L82.9968994,13.6766653 C82.9968994,12.7070681 83.3910163,12.2215856 84.1785153,12.2215856 C84.9774548,12.2215856 85.3770295,12.7070681 85.3770295,13.6766653 L85.3770295,23.2043911 L91.6902465,23.2043911 L91.6902465,21.6263099 C91.9961988,21.9441778 92.3259764,22.2115404 92.6787399,22.4302916 C93.4559531,22.9117758 94.345996,23.1533596 95.3505479,23.1533596 C96.4076838,23.1533596 97.4879104,22.826548 98.5915426,22.1720831 C97.9839414,24.4844908 96.6554894,25.6414838 94.6073411,25.6414838 C93.9661534,25.6414838 93.2171739,25.4604012 92.3627117,25.0998141 L92.3627117,30.5993188 C93.5212369,31.0499736 94.6861645,31.2760902 95.8567598,31.2760902 C98.5243696,31.2760902 100.796498,30.2495693 102.676819,28.1965276 C104.251607,26.4701921 105.039945,24.2027131 105.039945,21.3932488 L105.039945,6.33245332 L98.7262036,6.33245332 Z M57.978822,16.5537857 C57.4998992,17.0504215 56.9236804,17.2984237 56.2484863,17.2984237 C55.583788,17.2984237 55.0134468,17.0504215 54.5351537,16.5537857 C54.0562308,16.0574656 53.8176616,15.4600296 53.8176616,14.7598994 C53.8176616,14.049563 54.0542366,13.4485495 54.526862,12.9573851 C54.9992775,12.4667469 55.5735021,12.2215856 56.2484863,12.2215856 C56.934596,12.2215856 57.5146982,12.4667469 57.9871137,12.9573851 C58.4597391,13.4485495 58.6959993,14.049563 58.6959993,14.7598994 C58.6959993,15.4600296 58.4565903,16.0574656 57.978822,16.5537857 L57.978822,16.5537857 Z M72.1044746,16.5537857 C71.6258666,17.0504215 71.0495429,17.2984237 70.3745587,17.2984237 C69.7099653,17.2984237 69.1392043,17.0504215 68.6605963,16.5537857 C68.1823032,16.0574656 67.9433141,15.4600296 67.9433141,14.7598994 C67.9433141,14.049563 68.1796793,13.4485495 68.6523047,12.9573851 C69.1252449,12.4667469 69.6989447,12.2215856 70.3745587,12.2215856 C71.0600387,12.2215856 71.6404558,12.4667469 72.1125564,12.9573851 C72.5858115,13.4485495 72.8219667,14.049563 72.8219667,14.7598994 C72.8219667,15.4600296 72.5825578,16.0574656 72.1044746,16.5537857 L72.1044746,16.5537857 Z" id="Fill-6"/></g></g></svg>